<svg aria-hidden="true" style="position: absolute; width: 0; height: 0; overflow: hidden;" version="1.1" xmlns="http://www.w3.org/2000/svg" xmlns:xlink="http://www.w3.org/1999/xlink">
<defs>
<symbol id="icon-local_restaurant" viewBox="0 0 24 24">
<path d="M14.859 11.531l-1.453 1.453 6.891 6.891-1.406 1.406-6.891-6.891-6.891 6.891-1.406-1.406 9.75-9.75q-0.563-1.125-0.164-2.625t1.57-2.672q1.453-1.453 3.234-1.664t2.859 0.867 0.867 2.883-1.664 3.258q-1.172 1.172-2.672 1.547t-2.625-0.188zM8.109 13.359l-4.219-4.219q-1.172-1.172-1.172-2.813t1.172-2.813l7.031 6.984z"></path>
</symbol>
<symbol id="icon-time" viewBox="0 0 20 20">
<path d="M10 20c-5.523 0-10-4.477-10-10s4.477-10 10-10v0c5.523 0 10 4.477 10 10s-4.477 10-10 10v0zM10 18c4.418 0 8-3.582 8-8s-3.582-8-8-8v0c-4.418 0-8 3.582-8 8s3.582 8 8 8v0zM9 10.41v-6.41h2v5.59l3.95 3.95-1.41 1.41-4.54-4.54z"></path>
</symbol>
</defs>
</svg>
